<svg width="15" height="15" viewBox="0 0 15 15" fill="none" xmlns="http://www.w3.org/2000/svg">
<path fill-rule="evenodd" clip-rule="evenodd" d="M4.67505 0.625L14.05 0.625C14.2158 0.625 14.3748 0.690848 14.492 0.808058C14.6092 0.925268 14.675 1.08424 14.675 1.25V10.625C14.675 10.9702 14.3952 11.25 14.05 11.25C13.7049 11.25 13.425 10.9702 13.425 10.625V2.75888L1.99199 14.1919C1.74791 14.436 1.35218 14.436 1.10811 14.1919C0.864029 13.9479 0.864029 13.5521 1.10811 13.3081L12.5412 1.875L4.67505 1.875C4.32987 1.875 4.05005 1.59518 4.05005 1.25C4.05005 0.904822 4.32987 0.625 4.67505 0.625Z" fill="#00B118"/>
</svg>
