<svg width="241" height="51" viewBox="0 0 241 51" fill="none" xmlns="http://www.w3.org/2000/svg">
<path d="M63.8693 11.9091H70.3182L78.9545 32.9886H79.2955L87.9318 11.9091H94.3807V41H89.3239V21.0142H89.054L81.0142 40.9148H77.2358L69.196 20.9716H68.9261V41H63.8693V11.9091ZM108.351 41.4261C106.164 41.4261 104.274 40.9716 102.684 40.0625C101.102 39.1439 99.8852 37.8466 99.033 36.1705C98.1807 34.4848 97.7545 32.5009 97.7545 30.2188C97.7545 27.9744 98.1807 26.0047 99.033 24.3097C99.8947 22.6051 101.097 21.2794 102.641 20.3324C104.184 19.3759 105.998 18.8977 108.081 18.8977C109.426 18.8977 110.695 19.1155 111.888 19.5511C113.091 19.9773 114.151 20.6402 115.07 21.5398C115.998 22.4394 116.727 23.5852 117.257 24.9773C117.788 26.3598 118.053 28.0076 118.053 29.9205V31.4972H100.169V28.0312H113.124C113.114 27.0464 112.901 26.1705 112.485 25.4034C112.068 24.6269 111.486 24.0161 110.737 23.571C109.999 23.1259 109.137 22.9034 108.152 22.9034C107.101 22.9034 106.178 23.1591 105.382 23.6705C104.587 24.1723 103.967 24.8352 103.522 25.6591C103.086 26.4735 102.863 27.3684 102.854 28.3438V31.3693C102.854 32.6383 103.086 33.7273 103.55 34.6364C104.014 35.536 104.663 36.2273 105.496 36.7102C106.329 37.1837 107.305 37.4205 108.422 37.4205C109.17 37.4205 109.847 37.3163 110.453 37.108C111.059 36.8902 111.585 36.5729 112.03 36.1562C112.475 35.7396 112.811 35.2235 113.039 34.608L117.84 35.1477C117.537 36.4167 116.959 37.5246 116.107 38.4716C115.264 39.4091 114.184 40.1383 112.868 40.6591C111.552 41.1705 110.046 41.4261 108.351 41.4261ZM132.098 19.1818V23.1591H119.555V19.1818H132.098ZM122.652 13.9545H127.794V34.4375C127.794 35.1288 127.898 35.6591 128.106 36.0284C128.324 36.3883 128.608 36.6345 128.959 36.767C129.309 36.8996 129.697 36.9659 130.123 36.9659C130.445 36.9659 130.739 36.9422 131.004 36.8949C131.279 36.8475 131.487 36.8049 131.629 36.767L132.496 40.7869C132.221 40.8816 131.828 40.9858 131.317 41.0994C130.815 41.2131 130.199 41.2794 129.47 41.2983C128.182 41.3362 127.022 41.142 125.99 40.7159C124.958 40.2803 124.139 39.608 123.533 38.6989C122.936 37.7898 122.642 36.6534 122.652 35.2898V13.9545ZM141.477 41.4403C140.094 41.4403 138.849 41.1941 137.741 40.7017C136.642 40.1998 135.771 39.4612 135.127 38.4858C134.493 37.5104 134.176 36.3078 134.176 34.8778C134.176 33.6468 134.403 32.6288 134.857 31.8239C135.312 31.0189 135.932 30.375 136.718 29.892C137.504 29.4091 138.39 29.0445 139.374 28.7983C140.369 28.5426 141.396 28.358 142.457 28.2443C143.735 28.1117 144.772 27.9934 145.568 27.8892C146.363 27.7756 146.941 27.6051 147.301 27.3778C147.67 27.1411 147.855 26.7765 147.855 26.2841V26.1989C147.855 25.1288 147.537 24.3002 146.903 23.7131C146.268 23.1259 145.355 22.8324 144.161 22.8324C142.902 22.8324 141.903 23.107 141.164 23.6562C140.435 24.2055 139.943 24.8542 139.687 25.6023L134.886 24.9205C135.265 23.5947 135.89 22.4867 136.761 21.5966C137.632 20.697 138.697 20.0246 139.957 19.5795C141.216 19.125 142.608 18.8977 144.133 18.8977C145.184 18.8977 146.23 19.0208 147.272 19.267C148.314 19.5133 149.266 19.9205 150.127 20.4886C150.989 21.0473 151.68 21.8097 152.201 22.7756C152.731 23.7415 152.997 24.9489 152.997 26.3977V41H148.053V38.0028H147.883C147.57 38.6089 147.13 39.1771 146.562 39.7074C146.003 40.2282 145.298 40.6496 144.445 40.9716C143.603 41.2841 142.613 41.4403 141.477 41.4403ZM142.812 37.6619C143.844 37.6619 144.739 37.4583 145.497 37.0511C146.254 36.6345 146.837 36.0852 147.244 35.4034C147.66 34.7216 147.869 33.9782 147.869 33.1733V30.6023C147.708 30.7348 147.433 30.858 147.045 30.9716C146.666 31.0852 146.24 31.1847 145.766 31.2699C145.293 31.3551 144.824 31.4309 144.36 31.4972C143.896 31.5634 143.494 31.6203 143.153 31.6676C142.386 31.7718 141.699 31.9422 141.093 32.179C140.487 32.4157 140.009 32.7472 139.659 33.1733C139.308 33.59 139.133 34.1297 139.133 34.7926C139.133 35.7396 139.479 36.4545 140.17 36.9375C140.861 37.4205 141.742 37.6619 142.812 37.6619ZM154.08 16.3267V11.9091H177.29V16.3267H168.299V41H163.071V16.3267H154.08ZM186.832 41.4261C184.645 41.4261 182.756 40.9716 181.165 40.0625C179.583 39.1439 178.366 37.8466 177.514 36.1705C176.662 34.4848 176.236 32.5009 176.236 30.2188C176.236 27.9744 176.662 26.0047 177.514 24.3097C178.376 22.6051 179.579 21.2794 181.122 20.3324C182.666 19.3759 184.479 18.8977 186.562 18.8977C187.907 18.8977 189.176 19.1155 190.369 19.5511C191.572 19.9773 192.633 20.6402 193.551 21.5398C194.479 22.4394 195.208 23.5852 195.739 24.9773C196.269 26.3598 196.534 28.0076 196.534 29.9205V31.4972H178.651V28.0312H191.605C191.596 27.0464 191.383 26.1705 190.966 25.4034C190.549 24.6269 189.967 24.0161 189.219 23.571C188.48 23.1259 187.618 22.9034 186.634 22.9034C185.582 22.9034 184.659 23.1591 183.864 23.6705C183.068 24.1723 182.448 24.8352 182.003 25.6591C181.567 26.4735 181.345 27.3684 181.335 28.3438V31.3693C181.335 32.6383 181.567 33.7273 182.031 34.6364C182.495 35.536 183.144 36.2273 183.977 36.7102C184.811 37.1837 185.786 37.4205 186.903 37.4205C187.652 37.4205 188.329 37.3163 188.935 37.108C189.541 36.8902 190.066 36.5729 190.511 36.1562C190.956 35.7396 191.293 35.2235 191.52 34.608L196.321 35.1477C196.018 36.4167 195.44 37.5246 194.588 38.4716C193.745 39.4091 192.666 40.1383 191.349 40.6591C190.033 41.1705 188.527 41.4261 186.832 41.4261ZM209.201 41.4261C207.023 41.4261 205.153 40.9479 203.59 39.9915C202.037 39.035 200.84 37.714 199.997 36.0284C199.163 34.3333 198.747 32.3826 198.747 30.1761C198.747 27.9602 199.173 26.0047 200.025 24.3097C200.877 22.6051 202.08 21.2794 203.633 20.3324C205.196 19.3759 207.042 18.8977 209.173 18.8977C210.944 18.8977 212.511 19.2244 213.875 19.8778C215.248 20.5218 216.341 21.4356 217.156 22.6193C217.97 23.7936 218.434 25.1667 218.548 26.7386H213.633C213.434 25.6875 212.961 24.8116 212.213 24.1108C211.474 23.4006 210.484 23.0455 209.244 23.0455C208.193 23.0455 207.269 23.3295 206.474 23.8977C205.679 24.4564 205.058 25.2614 204.613 26.3125C204.178 27.3636 203.96 28.6231 203.96 30.0909C203.96 31.5777 204.178 32.8561 204.613 33.9261C205.049 34.9867 205.66 35.8059 206.446 36.3835C207.241 36.9517 208.174 37.2358 209.244 37.2358C210.001 37.2358 210.679 37.0937 211.275 36.8097C211.881 36.5161 212.388 36.0947 212.795 35.5455C213.202 34.9962 213.482 34.3286 213.633 33.5426H218.548C218.425 35.0862 217.97 36.4545 217.184 37.6477C216.398 38.8314 215.328 39.7595 213.974 40.4318C212.62 41.0947 211.029 41.4261 209.201 41.4261ZM226.712 28.2159V41H221.57V11.9091H226.599V22.8892H226.854C227.366 21.6581 228.156 20.6875 229.226 19.9773C230.306 19.2576 231.679 18.8977 233.346 18.8977C234.861 18.8977 236.182 19.215 237.309 19.8494C238.436 20.4839 239.307 21.4119 239.922 22.6335C240.547 23.8551 240.86 25.3466 240.86 27.108V41H235.718V27.9034C235.718 26.4356 235.339 25.2945 234.582 24.4801C233.833 23.6562 232.782 23.2443 231.428 23.2443C230.519 23.2443 229.705 23.4432 228.985 23.8409C228.275 24.2292 227.716 24.7926 227.309 25.5312C226.911 26.2699 226.712 27.1648 226.712 28.2159Z" fill="white"/>
<path d="M33.3333 50.5V42.1666C37.9444 42.1666 41.6666 38.4444 41.6666 33.8333H49.9999C49.9999 43.0555 42.5277 50.5 33.3333 50.5Z" fill="#00B118"/>
<path d="M33.3333 50.5V42.1666C28.7222 42.1666 25 38.4444 25 33.8333H16.6666C16.6666 43.0555 24.1388 50.5 33.3333 50.5Z" fill="#00B118"/>
<path d="M0 33.8334H8.33333C8.33333 38.4445 12.0556 42.1667 16.6667 42.1667V50.5C7.47222 50.5 0 43.0556 0 33.8334Z" fill="#00B118"/>
<path d="M0 33.8334H8.33333C8.33333 29.2222 12.0556 25.5 16.6667 25.5V17.1667C7.47222 17.1667 0 24.6389 0 33.8334Z" fill="#00B118"/>
<path d="M16.6667 0.5V8.83333C12.0556 8.83333 8.33333 12.5556 8.33333 17.1667H0C0 7.97222 7.47222 0.5 16.6667 0.5Z" fill="#00B118"/>
<path d="M16.6666 0.5V8.83333C21.2777 8.83333 25 12.5556 25 17.1667H33.3333C33.3333 7.97222 25.8611 0.5 16.6666 0.5Z" fill="#00B118"/>
<path d="M50 17.1667H41.6667C41.6667 12.5556 37.9445 8.83333 33.3334 8.83333V0.5C42.5278 0.5 50 7.97222 50 17.1667Z" fill="#00B118"/>
<path d="M50 17.1667H41.6667C41.6667 21.7778 37.9445 25.5 33.3334 25.5V33.8334C42.5278 33.8334 50 26.3889 50 17.1667Z" fill="#00B118"/>
</svg>
